<?xml version="1.0" encoding="UTF-8"?><svg id="peace-solid" xmlns="http://www.w3.org/2000/svg" viewBox="0 0 24 24"><path d="M8,1h7v1h-7zM6,2h11v1h-11zM5,3h13v1h-13zM4,4h5v1h-5zM11,4h2v1h-2zM14,4h5v1h-5zM3,5h4v1h-4zM11,5h2v1h-2zM16,5h4v1h-4zM2,6h4v1h-4zM11,6h2v1h-2zM17,6h4v1h-4zM2,7h3v1h-3zM11,7h2v1h-2zM18,7h3v1h-3zM1,8h4v1h-4zM11,8h2v1h-2zM18,8h4v1h-4zM1,9h3v1h-3zM11,9h2v1h-2zM19,9h3v1h-3zM1,10h3v1h-3zM11,10h2v1h-2zM19,10h3v1h-3zM1,11h3v1h-3zM10,11h3v1h-3zM19,11h3v1h-3zM1,12h3v1h-3zM9,12h5v1h-5zM19,12h3v1h-3zM1,13h3v1h-3zM8,13h7v1h-7zM19,13h3v1h-3zM1,14h4v1h-4zM7,14h3v1h-3zM11,14h5v1h-5zM18,14h4v1h-4zM2,15h3v1h-3zM6,15h3v1h-3zM11,15h2v1h-2zM14,15h3v1h-3zM18,15h3v1h-3zM2,16h6v1h-6zM11,16h2v1h-2zM15,16h6v1h-6zM3,17h4v1h-4zM11,17h2v1h-2zM16,17h4v1h-4zM4,18h5v1h-5zM11,18h2v1h-2zM14,18h5v1h-5zM5,19h13v1h-13zM6,20h11v1h-11zM8,21h7v1h-7z"/></svg>
