<?xml version="1.0" encoding="UTF-8"?><svg id="peace-solid" xmlns="http://www.w3.org/2000/svg" viewBox="0 0 16 16"><path d="M4,1h8v1h-8zM3,2h10v1h-10zM2,3h3v1h-3zM7,3h2v1h-2zM11,3h3v1h-3zM1,4h3v1h-3zM7,4h2v1h-2zM12,4h3v1h-3zM1,5h2v1h-2zM7,5h2v1h-2zM13,5h2v1h-2zM1,6h2v1h-2zM7,6h2v1h-2zM13,6h2v1h-2zM1,7h2v1h-2zM7,7h2v1h-2zM13,7h2v1h-2zM1,8h2v1h-2zM7,8h2v1h-2zM13,8h2v1h-2zM1,9h2v1h-2zM6,9h4v1h-4zM13,9h2v1h-2zM1,10h2v1h-2zM5,10h1v1h-1zM7,10h2v1h-2zM10,10h1v1h-1zM13,10h2v1h-2zM1,11h4v1h-4zM7,11h2v1h-2zM11,11h4v1h-4zM2,12h3v1h-3zM7,12h2v1h-2zM11,12h3v1h-3zM3,13h10v1h-10zM4,14h8v1h-8z"/></svg>