<?xml version="1.0" encoding="UTF-8"?><svg id="peace-solid" xmlns="http://www.w3.org/2000/svg" viewBox="0 0 24 24"><path d="M8,1h3v1h-3zM13,1h3v1h-3zM6,2h5v1h-5zM13,2h5v1h-5zM5,3h6v1h-6zM13,3h6v1h-6zM4,4h7v1h-7zM13,4h7v1h-7zM3,5h8v1h-8zM13,5h8v1h-8zM2,6h9v1h-9zM13,6h9v1h-9zM2,7h9v1h-9zM13,7h9v1h-9zM1,8h10v1h-10zM13,8h10v1h-10zM1,9h10v1h-10zM13,9h10v1h-10zM1,10h10v1h-10zM13,10h10v1h-10zM1,11h10v1h-10zM13,11h10v1h-10zM1,12h10v1h-10zM13,12h10v1h-10zM1,13h10v1h-10zM13,13h10v1h-10zM1,14h10v1h-10zM13,14h10v1h-10zM1,15h8v1h-8zM10,15h1v1h-1zM13,15h1v1h-1zM15,15h8v1h-8zM2,16h7v1h-7zM10,16h1v1h-1zM13,16h1v1h-1zM15,16h7v1h-7zM2,17h6v1h-6zM9,17h2v1h-2zM13,17h2v1h-2zM16,17h6v1h-6zM3,18h5v1h-5zM9,18h2v1h-2zM13,18h2v1h-2zM16,18h5v1h-5zM4,19h3v1h-3zM8,19h3v1h-3zM13,19h3v1h-3zM17,19h3v1h-3zM5,20h2v1h-2zM8,20h3v1h-3zM13,20h3v1h-3zM17,20h2v1h-2zM7,21h4v1h-4zM13,21h4v1h-4zM8,22h3v1h-3zM13,22h3v1h-3z"/></svg>