<?xml version="1.0" standalone="no"?>
<!DOCTYPE svg PUBLIC "-//W3C//DTD SVG 20010904//EN"
 "http://www.w3.org/TR/2001/REC-SVG-20010904/DTD/svg10.dtd">
<svg version="1.0" xmlns="http://www.w3.org/2000/svg"
 width="512.000000pt" height="512.000000pt" viewBox="0 0 512.000000 512.000000"
 preserveAspectRatio="xMidYMid meet">

<g transform="translate(0.000000,512.000000) scale(0.100000,-0.100000)"
fill="currentColor" stroke="none">
<path d="M570 4455 l0 -95 -95 0 -95 0 0 -1135 0 -1135 95 0 95 0 0 -95 0 -95
-95 0 -95 0 0 -190 0 -190 -95 0 -95 0 0 -190 0 -190 -95 0 -95 0 0 -190 0
-190 95 0 95 0 0 -95 0 -95 2370 0 2370 0 0 95 0 95 95 0 95 0 0 190 0 190
-95 0 -95 0 0 190 0 190 -95 0 -95 0 0 190 0 190 -95 0 -95 0 0 95 0 95 95 0
95 0 0 1135 0 1135 -95 0 -95 0 0 95 0 95 -1990 0 -1990 0 0 -95z m3980 -1230
l0 -1135 -1990 0 -1990 0 0 1135 0 1135 1990 0 1990 0 0 -1135z m-3602 -1422
l3 -93 94 0 95 0 0 95 0 96 93 -3 92 -3 3 -92 3 -93 94 0 95 0 0 95 0 96 93
-3 92 -3 3 -92 3 -93 94 0 95 0 0 95 0 96 93 -3 92 -3 3 -92 3 -93 94 0 95 0
0 95 0 96 93 -3 92 -3 3 -92 3 -93 89 0 89 0 3 93 3 92 93 3 92 3 0 -96 0 -95
95 0 94 0 3 93 3 92 93 3 92 3 0 -96 0 -95 95 0 94 0 3 93 3 92 93 3 92 3 0
-96 0 -95 95 0 94 0 3 93 3 92 93 3 92 3 0 -96 0 -95 95 0 94 0 3 93 3 92 188
3 187 2 0 -190 0 -190 95 0 95 0 0 -190 0 -190 95 0 95 0 0 -190 0 -190 -855
0 -855 0 0 95 0 95 -95 0 -95 0 0 95 0 95 -470 0 -470 0 0 -95 0 -95 -95 0
-95 0 0 -95 0 -95 -855 0 -855 0 0 190 0 190 95 0 95 0 0 190 0 190 95 0 95 0
0 190 0 190 188 -2 187 -3 3 -92z"/>
<path d="M760 3225 l0 -945 1800 0 1800 0 0 945 0 945 -1800 0 -1800 0 0 -945z
m3410 0 l0 -755 -1610 0 -1610 0 0 755 0 755 1610 0 1610 0 0 -755z"/>
<path d="M760 1615 l0 -95 -95 0 -95 0 0 -95 0 -95 95 0 95 0 0 95 0 95 95 0
95 0 0 -95 0 -95 95 0 95 0 0 95 0 95 95 0 95 0 0 -95 0 -95 95 0 95 0 0 95 0
95 95 0 96 0 -3 93 -3 92 -92 3 -93 3 0 -96 0 -95 -95 0 -95 0 0 95 0 95 -95
0 -95 0 0 -95 0 -95 -95 0 -95 0 0 95 0 95 -95 0 -95 0 0 -95z"/>
<path d="M3417 1703 c-4 -3 -7 -46 -7 -95 l0 -88 95 0 95 0 0 -95 0 -95 95 0
95 0 0 95 0 95 95 0 95 0 0 -95 0 -95 95 0 95 0 0 95 0 95 95 0 95 0 0 -95 0
-95 95 0 95 0 0 95 0 95 -95 0 -95 0 0 95 0 95 -95 0 -95 0 0 -95 0 -95 -95 0
-95 0 0 95 0 95 -95 0 -95 0 0 -95 0 -95 -95 0 -95 0 0 95 0 95 -88 0 c-49 0
-92 -3 -95 -7z"/>
<path d="M1900 1425 l0 -95 660 0 660 0 0 95 0 95 -660 0 -660 0 0 -95z"/>
</g>
</svg>
