<?xml version="1.0" standalone="no"?>
<!DOCTYPE svg PUBLIC "-//W3C//DTD SVG 20010904//EN"
 "http://www.w3.org/TR/2001/REC-SVG-20010904/DTD/svg10.dtd">
<svg version="1.0" xmlns="http://www.w3.org/2000/svg"
 width="524.000000pt" height="451.000000pt" viewBox="0 0 524.000000 451.000000"
 preserveAspectRatio="xMidYMid meet">

<g transform="translate(0.000000,451.000000) scale(0.100000,-0.100000)"
fill="#000000" stroke="none">
<path d="M2430 4010 l0 -90 -90 0 -90 0 0 -95 0 -95 -95 0 -95 0 0 -90 0 -90
-90 0 -90 0 0 -95 0 -95 -185 0 -185 0 0 185 0 185 -370 0 -370 0 0 -185 0
-185 -280 0 -280 0 0 -90 0 -90 -90 0 -90 0 0 -1205 0 -1205 90 0 90 0 0 -90
0 -90 925 0 925 0 0 -95 0 -95 740 0 740 0 0 95 0 95 740 0 740 0 0 90 0 90
95 0 95 0 0 1205 0 1205 -95 0 -95 0 0 90 0 90 -645 0 -645 0 0 95 0 95 -95 0
-95 0 0 90 0 90 -90 0 -90 0 0 95 0 95 -95 0 -95 0 0 90 0 90 -370 0 -370 0 0
-90z m740 -185 l0 -95 95 0 95 0 0 -90 0 -90 90 0 90 0 0 -95 0 -95 -740 0
-740 0 0 95 0 95 95 0 95 0 0 90 0 90 90 0 90 0 0 95 0 95 370 0 370 0 0 -95z
m-2400 -925 l0 -280 -185 0 -185 0 0 280 0 280 185 0 185 0 0 -280z m920 185
l0 -95 95 0 95 0 0 95 0 95 925 0 925 0 0 -95 0 -95 90 0 90 0 0 95 0 95 465
0 465 0 0 -280 0 -280 -280 0 -280 0 0 95 0 95 -90 0 -90 0 0 -95 0 -95 -185
0 -185 0 0 -90 0 -90 90 0 90 0 0 -185 0 -185 95 0 95 0 0 -465 0 -465 -95 0
-95 0 0 -90 0 -90 555 0 555 0 0 -95 0 -95 -555 0 -555 0 0 95 0 95 -90 0 -90
0 0 -95 0 -95 -95 0 -95 0 0 -90 0 -90 -740 0 -740 0 0 90 0 90 -90 0 -90 0 0
95 0 95 -95 0 -95 0 0 -95 0 -95 -740 0 -740 0 0 95 0 95 740 0 740 0 0 90 0
90 -90 0 -90 0 0 555 0 555 90 0 90 0 0 95 0 95 95 0 95 0 0 90 0 90 -185 0
-185 0 0 95 0 95 -95 0 -95 0 0 -95 0 -95 -185 0 -185 0 0 280 0 280 370 0
370 0 0 -95z m-1290 -1295 l0 -650 -95 0 -95 0 0 650 0 650 95 0 95 0 0 -650z
m550 0 l0 -650 -90 0 -90 0 0 650 0 650 90 0 90 0 0 -650z"/>
<path d="M1510 2900 l0 -90 90 0 90 0 0 90 0 90 -90 0 -90 0 0 -90z"/>
<path d="M2060 2900 l0 -90 -90 0 -90 0 0 -95 0 -95 90 0 90 0 0 95 0 95 740
0 740 0 0 -95 0 -95 95 0 95 0 0 95 0 95 -95 0 -95 0 0 90 0 90 -740 0 -740 0
0 -90z"/>
<path d="M3910 2900 l0 -90 95 0 95 0 0 90 0 90 -95 0 -95 0 0 -90z"/>
<path d="M2060 2345 l0 -95 -90 0 -90 0 0 -555 0 -555 90 0 90 0 0 -90 0 -90
740 0 740 0 0 90 0 90 95 0 95 0 0 555 0 555 -95 0 -95 0 0 95 0 95 -740 0
-740 0 0 -95z m1480 -650 l0 -555 -740 0 -740 0 0 555 0 555 740 0 740 0 0
-555z"/>
<path d="M2250 1700 l0 -370 555 0 555 0 0 370 0 370 -555 0 -555 0 0 -370z"/>
</g>
</svg>
