<?xml version="1.0" standalone="no"?>
<!DOCTYPE svg PUBLIC "-//W3C//DTD SVG 20010904//EN"
 "http://www.w3.org/TR/2001/REC-SVG-20010904/DTD/svg10.dtd">
<svg version="1.0" xmlns="http://www.w3.org/2000/svg"
 width="520.000000pt" height="520.000000pt" viewBox="0 0 520.000000 520.000000"
 preserveAspectRatio="xMidYMid meet">

<g transform="translate(0.000000,520.000000) scale(0.100000,-0.100000)"
fill="#000000" stroke="none">
<path d="M2355 4908 c-249 -28 -524 -110 -757 -225 -459 -227 -813 -582 -1043
-1045 -252 -507 -305 -1096 -148 -1653 190 -675 726 -1255 1396 -1511 117 -45
177 -46 218 -5 l29 29 0 222 0 222 -32 -6 c-18 -3 -85 -9 -148 -12 -214 -12
-360 36 -486 161 -61 61 -79 88 -136 205 -71 146 -139 233 -227 292 -70 47
-101 79 -101 104 0 19 8 25 42 35 89 24 216 -19 315 -105 28 -25 76 -83 106
-128 30 -46 75 -102 100 -125 123 -114 288 -140 485 -78 l80 25 16 70 c19 85
53 153 101 202 42 43 54 36 -101 62 -185 32 -381 105 -501 187 -264 181 -396
479 -397 899 -1 152 2 186 22 260 29 107 96 248 156 325 26 32 44 64 42 69
-33 75 -41 129 -40 261 0 113 4 156 23 225 32 121 32 120 100 120 121 0 324
-76 492 -185 l72 -46 131 25 c177 35 284 46 456 46 172 0 279 -11 455 -45
l131 -26 92 56 c179 108 361 175 473 175 69 0 68 1 100 -120 33 -120 33 -346
2 -434 l-21 -59 51 -66 c62 -81 120 -200 149 -306 18 -69 21 -106 22 -265 0
-338 -69 -569 -230 -765 -128 -157 -362 -276 -642 -326 -64 -11 -127 -23 -140
-25 l-23 -5 29 -37 c39 -49 77 -125 98 -198 15 -51 18 -114 21 -449 2 -214 5
-399 8 -411 9 -39 54 -74 97 -74 87 0 396 141 589 269 148 98 247 181 380 317
341 350 553 784 626 1283 20 142 23 483 5 621 -87 656 -451 1238 -1002 1603
-294 194 -667 328 -1022 366 -114 13 -399 12 -513 -1z"/>
</g>
</svg>
