<?xml version="1.0" standalone="no"?>
<!DOCTYPE svg PUBLIC "-//W3C//DTD SVG 20010904//EN"
 "http://www.w3.org/TR/2001/REC-SVG-20010904/DTD/svg10.dtd">
<svg version="1.0" xmlns="http://www.w3.org/2000/svg"
 width="342.000000pt" height="342.000000pt" viewBox="0 0 342.000000 342.000000"
 preserveAspectRatio="xMidYMid meet">

<g transform="translate(0.000000,342.000000) scale(0.100000,-0.100000)"
fill="#000000" stroke="none">
<path d="M2700 3220 l0 -30 105 0 105 0 0 30 0 30 -105 0 -105 0 0 -30z"/>
<path d="M2484 3164 c3 -9 6 -24 6 -35 0 -17 8 -19 100 -19 l100 0 0 35 0 35
-106 0 c-93 0 -105 -2 -100 -16z"/>
<path d="M2920 3075 l0 -105 35 0 35 0 0 105 0 105 -35 0 -35 0 0 -105z"/>
<path d="M2270 3065 l0 -35 -110 0 -110 0 0 -35 0 -35 -110 0 -110 0 0 -30 0
-30 145 0 145 0 0 -40 0 -40 75 0 75 0 0 -35 0 -35 70 0 69 0 3 -72 3 -73 103
-3 102 -3 0 41 0 40 110 0 110 0 0 35 0 35 110 0 110 0 0 105 0 105 -30 0 -30
0 0 -75 0 -75 -45 0 -45 0 0 40 0 40 -70 0 -70 0 0 35 0 35 -75 0 -75 0 0 35
0 35 -70 0 -70 0 0 35 0 35 -105 0 -105 0 0 -35z"/>
<path d="M1610 2855 l0 -35 105 0 105 0 0 35 0 35 -105 0 -105 0 0 -35z"/>
<path d="M1390 2775 l0 -35 -89 0 c-109 0 -121 -4 -121 -41 l0 -29 -110 0
-110 0 0 -35 0 -35 145 0 145 0 0 -35 0 -35 70 0 70 0 0 -35 0 -35 75 0 75 0
0 -75 0 -75 105 0 105 0 0 40 0 40 110 0 110 0 0 35 0 35 105 0 105 0 0 30 0
30 -70 0 -70 0 0 35 0 35 -75 0 -75 0 0 40 0 40 -70 0 -70 0 0 35 0 35 -74 0
-75 0 -3 33 -3 32 -102 3 -103 3 0 -36z"/>
<path d="M740 2560 l0 -30 105 0 105 0 0 30 0 30 -105 0 -105 0 0 -30z"/>
<path d="M2190 2576 c0 -42 9 -46 111 -46 l99 0 0 30 0 30 -105 0 c-84 0 -105
-3 -105 -14z"/>
<path d="M520 2485 l0 -35 -110 0 -110 0 0 -35 c0 -33 -2 -35 -35 -35 l-35 0
0 -470 0 -470 35 0 35 0 0 -428 c0 -236 3 -531 7 -655 l6 -227 1367 0 1367 0
6 227 c4 124 7 419 7 655 l0 428 35 0 35 0 0 250 0 250 -1235 0 -1235 0 0 40
0 40 105 0 105 0 0 40 0 40 110 0 110 0 0 35 0 35 110 0 110 0 0 30 0 30 -70
0 -70 0 0 35 0 35 -75 0 -75 0 0 40 0 40 -75 0 -75 0 0 35 0 35 -70 0 -70 0 0
35 0 35 -105 0 -105 0 0 -35z m70 -575 l0 -400 -150 0 -150 0 0 393 c0 217 3
397 7 400 3 4 71 7 150 7 l143 0 0 -400z m1903 -37 l67 -6 0 -33 c0 -32 2 -34
35 -34 33 0 35 -2 35 -35 0 -33 2 -35 35 -35 33 0 35 -2 35 -35 0 -33 2 -35
35 -35 30 0 35 -3 35 -24 0 -44 10 -56 46 -56 32 0 34 -2 34 -35 l0 -35 -220
0 c-210 0 -220 1 -220 19 0 38 -11 51 -46 51 -32 0 -34 2 -34 35 0 33 -2 35
-35 35 -33 0 -35 2 -35 35 0 33 -2 35 -34 35 -33 0 -35 2 -38 38 -3 34 -6 37
-35 40 -30 3 -33 6 -33 37 0 33 2 34 43 38 76 7 260 7 330 0z m-883 -38 c0
-33 2 -35 35 -35 33 0 35 -2 35 -34 0 -33 2 -35 38 -38 34 -3 37 -6 40 -35 3
-28 7 -32 35 -35 29 -3 32 -6 35 -40 3 -36 5 -38 38 -38 32 0 34 -2 34 -35 l0
-35 -219 0 -220 0 -3 33 c-3 28 -7 32 -35 35 -30 3 -33 6 -33 37 0 32 -2 34
-37 37 -35 3 -38 6 -41 35 -3 28 -7 32 -35 35 -29 3 -32 6 -35 41 -3 35 -5 37
-38 37 -32 0 -34 2 -34 35 l0 35 220 0 220 0 0 -35z m-870 -70 c0 -33 2 -35
35 -35 33 0 35 -2 35 -35 0 -33 2 -35 34 -35 33 0 35 -2 38 -37 3 -35 6 -38
36 -41 29 -3 32 -6 32 -38 l0 -34 -145 0 -145 0 0 145 0 145 40 0 c39 0 40 -1
40 -35z m2250 -365 l0 -40 -1310 0 -1310 0 0 40 0 40 1310 0 1310 0 0 -40z
m-220 -510 l0 -40 -1090 0 -1090 0 0 40 0 40 1090 0 1090 0 0 -40z m0 -290 l0
-40 -1090 0 -1090 0 0 40 0 40 1090 0 1090 0 0 -40z"/>
<path d="M370 2125 l0 -35 70 0 70 0 0 35 0 35 -70 0 -70 0 0 -35z"/>
<path d="M378 1714 c-5 -4 -8 -18 -8 -31 0 -21 4 -23 53 -23 29 0 61 6 71 13
16 12 16 14 2 27 -19 15 -107 26 -118 14z"/>
<path d="M1320 2270 l0 -30 105 0 105 0 0 30 0 30 -105 0 -105 0 0 -30z"/>
</g>
</svg>
