<?xml version="1.0" standalone="no"?>
<!DOCTYPE svg PUBLIC "-//W3C//DTD SVG 20010904//EN"
 "http://www.w3.org/TR/2001/REC-SVG-20010904/DTD/svg10.dtd">
<svg version="1.0" xmlns="http://www.w3.org/2000/svg"
 width="1208.000000pt" height="1208.000000pt" viewBox="0 0 1208.000000 1208.000000"
 preserveAspectRatio="xMidYMid meet">

<g transform="translate(0.000000,1208.000000) scale(0.100000,-0.100000)"
fill="#000000" stroke="none">
<path d="M4360 10840 l0 -240 -480 0 -480 0 0 -240 0 -240 -240 0 -240 0 0
-240 0 -240 -240 0 -240 0 0 -240 0 -240 -240 0 -240 0 0 -240 0 -240 -240 0
-240 0 0 -480 0 -480 -240 0 -240 0 0 -1680 0 -1680 240 0 240 0 0 -960 0
-960 -240 0 -240 0 0 -720 0 -720 720 0 720 0 0 240 0 240 960 0 960 0 0 -240
0 -240 1440 0 1440 0 0 240 0 240 720 0 720 0 0 240 0 240 240 0 240 0 0 240
0 240 240 0 240 0 0 240 0 240 240 0 240 0 0 240 0 240 240 0 240 0 0 480 0
480 240 0 240 0 0 1680 0 1680 -240 0 -240 0 0 480 0 480 -240 0 -240 0 0 240
0 240 -240 0 -240 0 0 240 0 240 -240 0 -240 0 0 240 0 240 -240 0 -240 0 0
240 0 240 -720 0 -720 0 0 240 0 240 -1440 0 -1440 0 0 -240z m3368 -952 l2
-238 478 -2 477 -3 3 -237 2 -238 238 -2 237 -3 3 -237 2 -238 238 -2 237 -3
3 -477 2 -478 238 -2 237 -3 0 -1685 0 -1685 -237 -3 -238 -2 -2 -478 -3 -477
-237 -3 -238 -2 -2 -238 -3 -237 -237 -3 -238 -2 -2 -238 -3 -237 -477 -3
-478 -2 -2 -238 -3 -237 -1685 0 -1685 0 -3 238 -2 237 -710 0 -710 0 -2 -237
-3 -238 -485 0 -485 0 0 485 0 485 238 3 237 2 0 710 0 710 -237 2 -238 3 0
1925 0 1925 237 3 238 2 2 238 3 237 237 3 238 2 2 238 3 237 237 3 238 2 2
238 3 237 478 3 477 2 0 233 c0 129 3 237 7 240 3 4 763 6 1687 5 l1681 -3 3
-237z"/>
<path d="M3888 8433 l-3 -238 -237 -3 -238 -2 0 -950 0 -950 238 -2 237 -3 3
-477 2 -478 238 -2 237 -3 3 -237 2 -238 238 -2 237 -3 3 -237 2 -238 238 -2
237 -3 3 -237 2 -238 478 -2 477 -3 3 -237 2 -238 710 0 710 0 2 238 3 237
238 3 237 2 0 470 0 470 -237 2 -238 3 -3 238 -2 237 -470 0 -470 0 -2 -237
-3 -238 -485 0 -485 0 -3 237 -2 238 -238 2 -237 3 -3 237 -2 238 -238 2 -237
3 0 725 0 725 238 3 237 2 0 470 0 470 -237 2 -238 3 -3 238 -2 237 -470 0
-470 0 -2 -237z"/>
</g>
</svg>
