<?xml version="1.0" standalone="no"?>
<!DOCTYPE svg PUBLIC "-//W3C//DTD SVG 20010904//EN"
 "http://www.w3.org/TR/2001/REC-SVG-20010904/DTD/svg10.dtd">
<svg version="1.0" xmlns="http://www.w3.org/2000/svg"
 width="192.000000pt" height="192.000000pt" viewBox="0 0 192.000000 192.000000"
 preserveAspectRatio="xMidYMid meet">

<g transform="translate(0.000000,192.000000) scale(0.100000,-0.100000)"
fill="#000000" stroke="none">
<path d="M320 1640 l0 -40 -40 0 -40 0 2 -602 c1 -332 4 -566 5 -520 l4 83 32
-3 32 -3 2 -75 c1 -41 2 -94 2 -117 l1 -43 160 0 160 0 0 400 0 400 40 0 40 0
0 -40 0 -40 40 0 40 0 0 -40 0 -40 40 0 40 0 0 -40 0 -40 80 0 80 0 0 40 0 40
40 0 40 0 0 40 0 40 40 0 40 0 0 40 0 40 40 0 40 0 -2 203 -3 202 -28 3 c-32
4 -57 -12 -55 -36 4 -51 2 -52 -77 -52 l-74 0 -3 -77 -3 -78 -77 -3 -78 -3 0
41 0 40 -40 0 -40 0 0 40 0 40 -40 0 -40 0 0 40 0 40 -40 0 -40 0 0 40 0 40
-40 0 -40 0 0 40 0 40 -120 0 -120 0 0 -40z m78 -1277 c3 -32 2 -33 -32 -33
-35 0 -36 1 -36 36 0 34 1 35 33 32 28 -3 32 -7 35 -35z"/>
<path d="M1600 960 l0 -560 -40 0 -40 0 0 -40 0 -40 40 0 40 0 0 40 0 40 40 0
40 0 0 560 0 560 -40 0 -40 0 0 -560z"/>
</g>
</svg>
