<?xml version="1.0" standalone="no"?>
<!DOCTYPE svg PUBLIC "-//W3C//DTD SVG 20010904//EN"
 "http://www.w3.org/TR/2001/REC-SVG-20010904/DTD/svg10.dtd">
<svg version="1.0" xmlns="http://www.w3.org/2000/svg"
 width="4096.000000pt" height="4096.000000pt" viewBox="0 0 4096.000000 4096.000000"
 preserveAspectRatio="xMidYMid meet">

<g transform="translate(0.000000,4096.000000) scale(0.100000,-0.100000)"
fill="#000000" stroke="none">
<path d="M4803 38465 c-562 -73 -1071 -306 -1485 -682 -452 -410 -745 -967
-823 -1566 -13 -106 -15 -1743 -15 -15737 0 -13994 2 -15631 15 -15737 37
-280 113 -531 240 -788 135 -275 282 -480 495 -694 428 -427 971 -690 1583
-766 107 -13 1918 -15 15667 -15 13749 0 15560 2 15667 15 616 76 1162 342
1593 776 204 205 353 415 485 684 127 257 203 508 240 788 13 106 15 1743 15
15737 0 13994 -2 15631 -15 15737 -110 843 -637 1579 -1413 1974 -281 143
-582 234 -905 274 -107 13 -1915 15 -15682 14 -12755 -1 -15578 -4 -15662 -14z
m6437 -6119 c259 -34 540 -101 757 -181 123 -46 414 -188 513 -251 430 -274
746 -624 965 -1069 280 -569 367 -1245 240 -1871 -104 -515 -354 -983 -720
-1349 -441 -441 -1062 -732 -1750 -819 -310 -40 -666 -44 -960 -11 -921 103
-1666 537 -2127 1240 -230 349 -384 794 -427 1229 -16 161 -14 498 5 656 58
501 229 938 522 1330 105 141 349 387 489 493 451 342 994 547 1628 612 179
19 694 13 865 -9z m15805 -7416 c823 -44 1564 -209 2229 -497 846 -366 1537
-903 2111 -1638 111 -142 332 -473 430 -645 577 -1007 906 -2210 1005 -3672
26 -387 30 -1050 30 -5485 l0 -4643 -2695 0 -2695 0 -3 4563 c-3 4139 -5 4578
-20 4733 -71 741 -188 1211 -417 1679 -426 870 -1142 1318 -2175 1360 -695 29
-1351 -182 -1885 -605 -139 -110 -383 -357 -494 -500 -169 -218 -329 -481
-434 -715 -128 -283 -173 -458 -219 -844 -15 -124 -17 -562 -20 -4903 l-3
-4768 -2696 0 -2695 0 6 868 c33 4644 33 14896 -1 15270 l-6 72 2696 0 2696 0
0 -1142 0 -1141 101 148 c288 422 525 714 823 1010 732 728 1610 1188 2651
1389 507 98 1114 136 1680 106z m-13625 -8475 l0 -8105 -2695 0 -2695 0 0
8105 0 8105 2695 0 2695 0 0 -8105z"/>
</g>
</svg>
